#define plant_width 7
#define plant_height 10
static unsigned char plant_bits[] = {
   0x00, 0x08, 0x1c, 0x3e, 0x7f, 0x7f, 0x08, 0x1c, 0x1c, 0x00 };
