#define ship_width 20
#define ship_height 20
static unsigned char ship_bits[] = {
   0x00, 0x01, 0x00, 0x00, 0x01, 0x00, 0xc0, 0x07, 0x00, 0x60, 0x0c, 0x00,
   0x20, 0x08, 0x00, 0x20, 0x08, 0x00, 0x30, 0x18, 0x00, 0x18, 0x30, 0x00,
   0x08, 0x20, 0x00, 0x08, 0x20, 0x00, 0x0c, 0x60, 0x00, 0x44, 0x44, 0x00,
   0xf4, 0x5f, 0x00, 0x1c, 0x70, 0x00, 0x08, 0x20, 0x00, 0x00, 0x00, 0x00,
   0x00, 0x00, 0x00, 0x00, 0x00, 0x00, 0x00, 0x00, 0x00, 0x00, 0x00, 0x00 };
